<svg id="visual" viewBox="0 0 960 540" width="960" height="540" xmlns="http://www.w3.org/2000/svg" xmlns:xlink="http://www.w3.org/1999/xlink" version="1.1"><rect x="0" y="0" width="960" height="540" fill="#001122"></rect><path d="M0 335L137 368L274 379L411 335L549 362L686 359L823 358L960 352L960 541L823 541L686 541L549 541L411 541L274 541L137 541L0 541Z" fill="#0066ff"></path><path d="M0 414L137 352L274 376L411 417L549 361L686 405L823 364L960 372L960 541L823 541L686 541L549 541L411 541L274 541L137 541L0 541Z" fill="#1795fe"></path><path d="M0 453L137 400L274 427L411 392L549 402L686 395L823 429L960 443L960 541L823 541L686 541L549 541L411 541L274 541L137 541L0 541Z" fill="#4facf7"></path><path d="M0 452L137 475L274 467L411 447L549 438L686 437L823 445L960 484L960 541L823 541L686 541L549 541L411 541L274 541L137 541L0 541Z" fill="#1795fe"></path><path d="M0 474L137 485L274 509L411 474L549 501L686 501L823 475L960 492L960 541L823 541L686 541L549 541L411 541L274 541L137 541L0 541Z" fill="#0066ff"></path></svg>