<svg id="visual" viewBox="0 0 960 540" width="960" height="540" xmlns="http://www.w3.org/2000/svg" xmlns:xlink="http://www.w3.org/1999/xlink" version="1.1"><path d="M0 190L14.5 191.8C29 193.7 58 197.3 87.2 183C116.3 168.7 145.7 136.3 174.8 121C204 105.7 233 107.3 262 117.2C291 127 320 145 349 163C378 181 407 199 436.2 189.2C465.3 179.3 494.7 141.7 523.8 147C553 152.3 582 200.7 611 210.5C640 220.3 669 191.7 698 175.5C727 159.3 756 155.7 785.2 165.5C814.3 175.3 843.7 198.7 872.8 204.2C902 209.7 931 197.3 945.5 191.2L960 185L960 0L945.5 0C931 0 902 0 872.8 0C843.7 0 814.3 0 785.2 0C756 0 727 0 698 0C669 0 640 0 611 0C582 0 553 0 523.8 0C494.7 0 465.3 0 436.2 0C407 0 378 0 349 0C320 0 291 0 262 0C233 0 204 0 174.8 0C145.7 0 116.3 0 87.2 0C58 0 29 0 14.5 0L0 0Z" fill="#6495ff"></path><path d="M0 228L14.5 239.7C29 251.3 58 274.7 87.2 266.5C116.3 258.3 145.7 218.7 174.8 199.8C204 181 233 183 262 195.7C291 208.3 320 231.7 349 255.8C378 280 407 305 436.2 287C465.3 269 494.7 208 523.8 200.8C553 193.7 582 240.3 611 255.7C640 271 669 255 698 246C727 237 756 235 785.2 247.5C814.3 260 843.7 287 872.8 291.5C902 296 931 278 945.5 269L960 260L960 183L945.5 189.2C931 195.3 902 207.7 872.8 202.2C843.7 196.7 814.3 173.3 785.2 163.5C756 153.7 727 157.3 698 173.5C669 189.7 640 218.3 611 208.5C582 198.7 553 150.3 523.8 145C494.7 139.7 465.3 177.3 436.2 187.2C407 197 378 179 349 161C320 143 291 125 262 115.2C233 105.3 204 103.7 174.8 119C145.7 134.3 116.3 166.7 87.2 181C58 195.3 29 191.7 14.5 189.8L0 188Z" fill="#407cff"></path><path d="M0 379L14.5 383.5C29 388 58 397 87.2 394.3C116.3 391.7 145.7 377.3 174.8 372.8C204 368.3 233 373.7 262 369.2C291 364.7 320 350.3 349 355.7C378 361 407 386 436.2 398.5C465.3 411 494.7 411 523.8 414.7C553 418.3 582 425.7 611 419.5C640 413.3 669 393.7 698 383.8C727 374 756 374 785.2 376.7C814.3 379.3 843.7 384.7 872.8 390C902 395.3 931 400.7 945.5 403.3L960 406L960 258L945.5 267C931 276 902 294 872.8 289.5C843.7 285 814.3 258 785.2 245.5C756 233 727 235 698 244C669 253 640 269 611 253.7C582 238.3 553 191.7 523.8 198.8C494.7 206 465.3 267 436.2 285C407 303 378 278 349 253.8C320 229.7 291 206.3 262 193.7C233 181 204 179 174.8 197.8C145.7 216.7 116.3 256.3 87.2 264.5C58 272.7 29 249.3 14.5 237.7L0 226Z" fill="#0f62ff"></path><path d="M0 449L14.5 454.5C29 460 58 471 87.2 465.7C116.3 460.3 145.7 438.7 174.8 431.3C204 424 233 431 262 431C291 431 320 424 349 427.7C378 431.3 407 445.7 436.2 451C465.3 456.3 494.7 452.7 523.8 454.5C553 456.3 582 463.7 611 459.2C640 454.7 669 438.3 698 427.5C727 416.7 756 411.3 785.2 414C814.3 416.7 843.7 427.3 872.8 432.7C902 438 931 438 945.5 438L960 438L960 404L945.5 401.3C931 398.7 902 393.3 872.8 388C843.7 382.7 814.3 377.3 785.2 374.7C756 372 727 372 698 381.8C669 391.7 640 411.3 611 417.5C582 423.7 553 416.3 523.8 412.7C494.7 409 465.3 409 436.2 396.5C407 384 378 359 349 353.7C320 348.3 291 362.7 262 367.2C233 371.7 204 366.3 174.8 370.8C145.7 375.3 116.3 389.7 87.2 392.3C58 395 29 386 14.5 381.5L0 377Z" fill="#0555de"></path><path d="M0 541L14.5 541C29 541 58 541 87.2 541C116.3 541 145.7 541 174.8 541C204 541 233 541 262 541C291 541 320 541 349 541C378 541 407 541 436.2 541C465.3 541 494.7 541 523.8 541C553 541 582 541 611 541C640 541 669 541 698 541C727 541 756 541 785.2 541C814.3 541 843.7 541 872.8 541C902 541 931 541 945.5 541L960 541L960 436L945.5 436C931 436 902 436 872.8 430.7C843.7 425.3 814.3 414.7 785.2 412C756 409.3 727 414.7 698 425.5C669 436.3 640 452.7 611 457.2C582 461.7 553 454.3 523.8 452.5C494.7 450.7 465.3 454.3 436.2 449C407 443.7 378 429.3 349 425.7C320 422 291 429 262 429C233 429 204 422 174.8 429.3C145.7 436.7 116.3 458.3 87.2 463.7C58 469 29 458 14.5 452.5L0 447Z" fill="#0048bd"></path></svg>