<svg id="visual" viewBox="0 0 1200 120" width="1200" height="120" xmlns="http://www.w3.org/2000/svg" xmlns:xlink="http://www.w3.org/1999/xlink" version="1.1"><path d="M0 68L28.5 70.5C57 73 114 78 171.2 81C228.3 84 285.7 85 342.8 85.3C400 85.7 457 85.3 514.2 80.8C571.3 76.3 628.7 67.7 685.8 60.2C743 52.7 800 46.3 857.2 43.8C914.3 41.3 971.7 42.7 1028.8 50.3C1086 58 1143 72 1171.5 79L1200 86L1200 0L1171.5 0C1143 0 1086 0 1028.8 0C971.7 0 914.3 0 857.2 0C800 0 743 0 685.8 0C628.7 0 571.3 0 514.2 0C457 0 400 0 342.8 0C285.7 0 228.3 0 171.2 0C114 0 57 0 28.5 0L0 0Z" fill="#001829" stroke-linecap="round" stroke-linejoin="miter"></path></svg>